<svg width="32" height="32" viewBox="0 0 32 32" fill="none" xmlns="http://www.w3.org/2000/svg">
  <rect width="32" height="32" rx="8" fill="url(#gradient)"/>
  <path d="M16 6C16.8284 6 17.5 6.67157 17.5 7.5V11.5C17.5 12.3284 16.8284 13 16 13C15.1716 13 14.5 12.3284 14.5 11.5V7.5C14.5 6.67157 15.1716 6 16 6Z" fill="white"/>
  <path d="M16 19C18.7614 19 21 16.7614 21 14C21 11.2386 18.7614 9 16 9C13.2386 9 11 11.2386 11 14C11 16.7614 13.2386 19 16 19Z" fill="white" fill-opacity="0.8"/>
  <path d="M16 22C16.8284 22 17.5 22.6716 17.5 23.5V25.5C17.5 26.3284 16.8284 27 16 27C15.1716 27 14.5 26.3284 14.5 25.5V23.5C14.5 22.6716 15.1716 22 16 22Z" fill="white"/>
  <defs>
    <linearGradient id="gradient" x1="0" y1="0" x2="32" y2="32" gradientUnits="userSpaceOnUse">
      <stop stop-color="#3B82F6"/>
      <stop offset="1" stop-color="#8B5CF6"/>
    </linearGradient>
  </defs>
</svg>